<mxfile host="65bd71144e" modified="2021-01-25T11:56:57.475Z" agent="5.0 (X11; Linux x86_64) AppleWebKit/537.36 (KHTML, like Gecko) Code-OSS/1.52.1 Chrome/83.0.4103.122 Electron/9.3.4 Safari/537.36" etag="2Be5pEs48sZZvq1g9F3s" version="13.10.0" type="embed">
    <diagram id="CJzdPwFb055Scu8D0wkf" name="Page-1">
        <mxGraphModel dx="1822" dy="792" grid="1" gridSize="10" guides="1" tooltips="1" connect="1" arrows="1" fold="1" page="1" pageScale="1" pageWidth="827" pageHeight="1169" math="0" shadow="0">
            <root>
                <mxCell id="0"/>
                <mxCell id="1" parent="0"/>
                <mxCell id="0WRFsFUqXYq3tekZzmE6-127" style="edgeStyle=orthogonalEdgeStyle;rounded=0;orthogonalLoop=1;jettySize=auto;html=1;exitX=1;exitY=0.5;exitDx=0;exitDy=0;entryX=0;entryY=0.5;entryDx=0;entryDy=0;" parent="1" source="0WRFsFUqXYq3tekZzmE6-1" target="0WRFsFUqXYq3tekZzmE6-118" edge="1">
                    <mxGeometry relative="1" as="geometry">
                        <Array as="points">
                            <mxPoint x="880" y="70"/>
                            <mxPoint x="140" y="70"/>
                            <mxPoint x="140" y="740"/>
                            <mxPoint x="640" y="740"/>
                            <mxPoint x="640" y="780"/>
                        </Array>
                    </mxGeometry>
                </mxCell>
                <mxCell id="0WRFsFUqXYq3tekZzmE6-195" style="edgeStyle=orthogonalEdgeStyle;rounded=0;orthogonalLoop=1;jettySize=auto;html=1;exitX=0.5;exitY=1;exitDx=0;exitDy=0;" parent="1" source="0WRFsFUqXYq3tekZzmE6-1" target="0WRFsFUqXYq3tekZzmE6-29" edge="1">
                    <mxGeometry relative="1" as="geometry"/>
                </mxCell>
                <mxCell id="0WRFsFUqXYq3tekZzmE6-1" value="Aplicação do utilizador" style="ellipse;whiteSpace=wrap;html=1;" parent="1" vertex="1">
                    <mxGeometry x="760" y="40" width="120" height="80" as="geometry"/>
                </mxCell>
                <mxCell id="0WRFsFUqXYq3tekZzmE6-28" value="Service discovery (Eureka)" style="ellipse;whiteSpace=wrap;html=1;" parent="1" vertex="1">
                    <mxGeometry x="160" y="160" width="120" height="80" as="geometry"/>
                </mxCell>
                <mxCell id="0WRFsFUqXYq3tekZzmE6-91" style="edgeStyle=orthogonalEdgeStyle;rounded=0;orthogonalLoop=1;jettySize=auto;html=1;entryX=0.5;entryY=0;entryDx=0;entryDy=0;" parent="1" source="0WRFsFUqXYq3tekZzmE6-29" target="0WRFsFUqXYq3tekZzmE6-34" edge="1">
                    <mxGeometry relative="1" as="geometry">
                        <Array as="points">
                            <mxPoint x="380" y="200"/>
                        </Array>
                    </mxGeometry>
                </mxCell>
                <mxCell id="0WRFsFUqXYq3tekZzmE6-205" style="edgeStyle=orthogonalEdgeStyle;rounded=0;orthogonalLoop=1;jettySize=auto;html=1;exitX=0;exitY=0;exitDx=0;exitDy=0;entryX=0.5;entryY=0;entryDx=0;entryDy=0;" parent="1" source="0WRFsFUqXYq3tekZzmE6-29" target="0WRFsFUqXYq3tekZzmE6-35" edge="1">
                    <mxGeometry relative="1" as="geometry">
                        <Array as="points">
                            <mxPoint x="300" y="172"/>
                            <mxPoint x="300" y="260"/>
                            <mxPoint x="220" y="260"/>
                        </Array>
                    </mxGeometry>
                </mxCell>
                <mxCell id="0WRFsFUqXYq3tekZzmE6-212" style="edgeStyle=orthogonalEdgeStyle;rounded=0;orthogonalLoop=1;jettySize=auto;html=1;exitX=0.5;exitY=1;exitDx=0;exitDy=0;entryX=0.5;entryY=0;entryDx=0;entryDy=0;" parent="1" source="0WRFsFUqXYq3tekZzmE6-29" target="0WRFsFUqXYq3tekZzmE6-108" edge="1">
                    <mxGeometry relative="1" as="geometry">
                        <Array as="points">
                            <mxPoint x="820" y="280"/>
                            <mxPoint x="1340" y="280"/>
                        </Array>
                    </mxGeometry>
                </mxCell>
                <mxCell id="0WRFsFUqXYq3tekZzmE6-215" style="edgeStyle=orthogonalEdgeStyle;rounded=0;orthogonalLoop=1;jettySize=auto;html=1;exitX=1;exitY=1;exitDx=0;exitDy=0;" parent="1" source="0WRFsFUqXYq3tekZzmE6-29" target="0WRFsFUqXYq3tekZzmE6-38" edge="1">
                    <mxGeometry relative="1" as="geometry"/>
                </mxCell>
                <mxCell id="0WRFsFUqXYq3tekZzmE6-217" style="edgeStyle=orthogonalEdgeStyle;rounded=0;orthogonalLoop=1;jettySize=auto;html=1;exitX=1;exitY=0;exitDx=0;exitDy=0;" parent="1" source="0WRFsFUqXYq3tekZzmE6-29" target="0WRFsFUqXYq3tekZzmE6-89" edge="1">
                    <mxGeometry relative="1" as="geometry"/>
                </mxCell>
                <mxCell id="0WRFsFUqXYq3tekZzmE6-232" style="edgeStyle=elbowEdgeStyle;rounded=0;orthogonalLoop=1;jettySize=auto;html=1;exitX=0;exitY=1;exitDx=0;exitDy=0;entryX=0.5;entryY=0;entryDx=0;entryDy=0;" parent="1" source="0WRFsFUqXYq3tekZzmE6-29" target="0WRFsFUqXYq3tekZzmE6-51" edge="1">
                    <mxGeometry relative="1" as="geometry">
                        <Array as="points">
                            <mxPoint x="700" y="310"/>
                        </Array>
                    </mxGeometry>
                </mxCell>
                <mxCell id="30" style="edgeStyle=orthogonalEdgeStyle;rounded=0;orthogonalLoop=1;jettySize=auto;html=1;entryX=0.5;entryY=0;entryDx=0;entryDy=0;" parent="1" source="0WRFsFUqXYq3tekZzmE6-29" target="22" edge="1">
                    <mxGeometry relative="1" as="geometry">
                        <Array as="points">
                            <mxPoint x="820" y="280"/>
                            <mxPoint x="1181" y="280"/>
                        </Array>
                    </mxGeometry>
                </mxCell>
                <mxCell id="31" style="edgeStyle=orthogonalEdgeStyle;rounded=0;orthogonalLoop=1;jettySize=auto;html=1;" parent="1" source="0WRFsFUqXYq3tekZzmE6-29" target="0WRFsFUqXYq3tekZzmE6-90" edge="1">
                    <mxGeometry relative="1" as="geometry"/>
                </mxCell>
                <mxCell id="32" style="edgeStyle=orthogonalEdgeStyle;rounded=0;orthogonalLoop=1;jettySize=auto;html=1;exitX=0.5;exitY=1;exitDx=0;exitDy=0;" parent="1" source="0WRFsFUqXYq3tekZzmE6-29" target="4" edge="1">
                    <mxGeometry relative="1" as="geometry">
                        <Array as="points">
                            <mxPoint x="820" y="280"/>
                            <mxPoint x="860" y="280"/>
                        </Array>
                    </mxGeometry>
                </mxCell>
                <mxCell id="0WRFsFUqXYq3tekZzmE6-29" value="API Gateway (Zuul)" style="ellipse;whiteSpace=wrap;html=1;" parent="1" vertex="1">
                    <mxGeometry x="760" y="160" width="120" height="80" as="geometry"/>
                </mxCell>
                <mxCell id="0WRFsFUqXYq3tekZzmE6-32" value="Relational Database (Postgres)" style="ellipse;whiteSpace=wrap;html=1;" parent="1" vertex="1">
                    <mxGeometry x="160" y="505" width="120" height="80" as="geometry"/>
                </mxCell>
                <mxCell id="0WRFsFUqXYq3tekZzmE6-202" style="edgeStyle=orthogonalEdgeStyle;rounded=0;orthogonalLoop=1;jettySize=auto;html=1;exitX=0;exitY=0.5;exitDx=0;exitDy=0;entryX=1;entryY=0.5;entryDx=0;entryDy=0;" parent="1" source="0WRFsFUqXYq3tekZzmE6-34" target="0WRFsFUqXYq3tekZzmE6-35" edge="1">
                    <mxGeometry relative="1" as="geometry"/>
                </mxCell>
                <mxCell id="0WRFsFUqXYq3tekZzmE6-34" value="Auth Service" style="ellipse;whiteSpace=wrap;html=1;" parent="1" vertex="1">
                    <mxGeometry x="320" y="380" width="120" height="80" as="geometry"/>
                </mxCell>
                <mxCell id="0WRFsFUqXYq3tekZzmE6-37" style="edgeStyle=orthogonalEdgeStyle;rounded=0;orthogonalLoop=1;jettySize=auto;html=1;exitX=0.5;exitY=1;exitDx=0;exitDy=0;entryX=0.5;entryY=0;entryDx=0;entryDy=0;" parent="1" source="0WRFsFUqXYq3tekZzmE6-35" target="0WRFsFUqXYq3tekZzmE6-32" edge="1">
                    <mxGeometry relative="1" as="geometry"/>
                </mxCell>
                <mxCell id="0WRFsFUqXYq3tekZzmE6-50" style="edgeStyle=orthogonalEdgeStyle;rounded=0;orthogonalLoop=1;jettySize=auto;html=1;entryX=0.5;entryY=0;entryDx=0;entryDy=0;" parent="1" source="0WRFsFUqXYq3tekZzmE6-38" target="0WRFsFUqXYq3tekZzmE6-49" edge="1">
                    <mxGeometry relative="1" as="geometry"/>
                </mxCell>
                <mxCell id="2" style="edgeStyle=orthogonalEdgeStyle;rounded=0;orthogonalLoop=1;jettySize=auto;html=1;exitX=1;exitY=1;exitDx=0;exitDy=0;entryX=0;entryY=0.5;entryDx=0;entryDy=0;" parent="1" source="0WRFsFUqXYq3tekZzmE6-118" target="0WRFsFUqXYq3tekZzmE6-65" edge="1">
                    <mxGeometry relative="1" as="geometry">
                        <mxPoint x="1240" y="730" as="targetPoint"/>
                        <Array as="points">
                            <mxPoint x="1200" y="808"/>
                            <mxPoint x="1200" y="690"/>
                        </Array>
                    </mxGeometry>
                </mxCell>
                <mxCell id="0WRFsFUqXYq3tekZzmE6-38" value="Payment service" style="ellipse;whiteSpace=wrap;html=1;" parent="1" vertex="1">
                    <mxGeometry x="1440" y="385" width="120" height="80" as="geometry"/>
                </mxCell>
                <mxCell id="0WRFsFUqXYq3tekZzmE6-49" value="Relational Database (Postgres)" style="ellipse;whiteSpace=wrap;html=1;" parent="1" vertex="1">
                    <mxGeometry x="1440" y="510" width="120" height="80" as="geometry"/>
                </mxCell>
                <mxCell id="0WRFsFUqXYq3tekZzmE6-55" style="edgeStyle=orthogonalEdgeStyle;rounded=0;orthogonalLoop=1;jettySize=auto;html=1;entryX=0.5;entryY=0;entryDx=0;entryDy=0;" parent="1" source="0WRFsFUqXYq3tekZzmE6-51" target="0WRFsFUqXYq3tekZzmE6-54" edge="1">
                    <mxGeometry relative="1" as="geometry"/>
                </mxCell>
                <mxCell id="0WRFsFUqXYq3tekZzmE6-51" value="Rental service" style="ellipse;whiteSpace=wrap;html=1;" parent="1" vertex="1">
                    <mxGeometry x="640" y="385" width="120" height="80" as="geometry"/>
                </mxCell>
                <mxCell id="0WRFsFUqXYq3tekZzmE6-54" value="Relational Database (Postgres)" style="ellipse;whiteSpace=wrap;html=1;" parent="1" vertex="1">
                    <mxGeometry x="640" y="510" width="120" height="80" as="geometry"/>
                </mxCell>
                <mxCell id="0WRFsFUqXYq3tekZzmE6-114" style="edgeStyle=orthogonalEdgeStyle;rounded=0;orthogonalLoop=1;jettySize=auto;html=1;exitX=0.5;exitY=1;exitDx=0;exitDy=0;entryX=0;entryY=0.5;entryDx=0;entryDy=0;" parent="1" source="0WRFsFUqXYq3tekZzmE6-78" target="0WRFsFUqXYq3tekZzmE6-100" edge="1">
                    <mxGeometry relative="1" as="geometry"/>
                </mxCell>
                <mxCell id="0WRFsFUqXYq3tekZzmE6-78" value="Travel history process service" style="ellipse;whiteSpace=wrap;html=1;" parent="1" vertex="1">
                    <mxGeometry x="960" y="385" width="120" height="80" as="geometry"/>
                </mxCell>
                <mxCell id="0WRFsFUqXYq3tekZzmE6-97" style="edgeStyle=orthogonalEdgeStyle;rounded=0;orthogonalLoop=1;jettySize=auto;html=1;exitX=0.5;exitY=1;exitDx=0;exitDy=0;entryX=0.5;entryY=0;entryDx=0;entryDy=0;" parent="1" source="0WRFsFUqXYq3tekZzmE6-89" target="0WRFsFUqXYq3tekZzmE6-96" edge="1">
                    <mxGeometry relative="1" as="geometry"/>
                </mxCell>
                <mxCell id="0WRFsFUqXYq3tekZzmE6-89" value="Feedback service" style="ellipse;whiteSpace=wrap;html=1;" parent="1" vertex="1">
                    <mxGeometry x="1600" y="385" width="120" height="80" as="geometry"/>
                </mxCell>
                <mxCell id="0WRFsFUqXYq3tekZzmE6-103" style="edgeStyle=orthogonalEdgeStyle;rounded=0;orthogonalLoop=1;jettySize=auto;html=1;entryX=0.5;entryY=0;entryDx=0;entryDy=0;" parent="1" source="0WRFsFUqXYq3tekZzmE6-90" target="0WRFsFUqXYq3tekZzmE6-102" edge="1">
                    <mxGeometry relative="1" as="geometry"/>
                </mxCell>
                <mxCell id="0WRFsFUqXYq3tekZzmE6-90" value="Bike management service" style="ellipse;whiteSpace=wrap;html=1;" parent="1" vertex="1">
                    <mxGeometry x="480" y="385" width="120" height="80" as="geometry"/>
                </mxCell>
                <mxCell id="0WRFsFUqXYq3tekZzmE6-96" value="Relational Database (Postgres)" style="ellipse;whiteSpace=wrap;html=1;" parent="1" vertex="1">
                    <mxGeometry x="1600" y="510" width="120" height="80" as="geometry"/>
                </mxCell>
                <mxCell id="0WRFsFUqXYq3tekZzmE6-100" value="NoSql Database (MongoDB)" style="ellipse;whiteSpace=wrap;html=1;" parent="1" vertex="1">
                    <mxGeometry x="1121" y="505" width="120" height="80" as="geometry"/>
                </mxCell>
                <mxCell id="0WRFsFUqXYq3tekZzmE6-102" value="Relational Database (Postgres)" style="ellipse;whiteSpace=wrap;html=1;" parent="1" vertex="1">
                    <mxGeometry x="480" y="505" width="120" height="80" as="geometry"/>
                </mxCell>
                <mxCell id="0WRFsFUqXYq3tekZzmE6-104" value="Relational Database (Postgres)" style="ellipse;whiteSpace=wrap;html=1;" parent="1" vertex="1">
                    <mxGeometry x="800" y="510" width="120" height="80" as="geometry"/>
                </mxCell>
                <mxCell id="0WRFsFUqXYq3tekZzmE6-115" style="edgeStyle=orthogonalEdgeStyle;rounded=0;orthogonalLoop=1;jettySize=auto;html=1;exitX=0.5;exitY=1;exitDx=0;exitDy=0;entryX=1;entryY=0.5;entryDx=0;entryDy=0;" parent="1" source="0WRFsFUqXYq3tekZzmE6-108" target="0WRFsFUqXYq3tekZzmE6-100" edge="1">
                    <mxGeometry relative="1" as="geometry">
                        <mxPoint x="1320" y="545" as="targetPoint"/>
                    </mxGeometry>
                </mxCell>
                <mxCell id="0WRFsFUqXYq3tekZzmE6-108" value="Travel history service" style="ellipse;whiteSpace=wrap;html=1;" parent="1" vertex="1">
                    <mxGeometry x="1280" y="385" width="120" height="80" as="geometry"/>
                </mxCell>
                <mxCell id="38" style="edgeStyle=orthogonalEdgeStyle;rounded=0;orthogonalLoop=1;jettySize=auto;html=1;entryX=0;entryY=0.5;entryDx=0;entryDy=0;" parent="1" source="0WRFsFUqXYq3tekZzmE6-118" target="35" edge="1">
                    <mxGeometry relative="1" as="geometry">
                        <Array as="points">
                            <mxPoint x="1410" y="780"/>
                            <mxPoint x="1410" y="690"/>
                        </Array>
                    </mxGeometry>
                </mxCell>
                <mxCell id="43" style="edgeStyle=orthogonalEdgeStyle;rounded=0;orthogonalLoop=1;jettySize=auto;html=1;exitX=0;exitY=1;exitDx=0;exitDy=0;entryX=1;entryY=0.5;entryDx=0;entryDy=0;" parent="1" source="0WRFsFUqXYq3tekZzmE6-118" target="40" edge="1">
                    <mxGeometry relative="1" as="geometry"/>
                </mxCell>
                <mxCell id="51" style="edgeStyle=orthogonalEdgeStyle;rounded=0;orthogonalLoop=1;jettySize=auto;html=1;entryX=0.5;entryY=1;entryDx=0;entryDy=0;" parent="1" source="0WRFsFUqXYq3tekZzmE6-118" target="49" edge="1">
                    <mxGeometry relative="1" as="geometry">
                        <Array as="points">
                            <mxPoint x="640" y="780"/>
                            <mxPoint x="640" y="740"/>
                            <mxPoint x="220" y="740"/>
                        </Array>
                    </mxGeometry>
                </mxCell>
                <mxCell id="60" style="edgeStyle=orthogonalEdgeStyle;rounded=0;orthogonalLoop=1;jettySize=auto;html=1;entryX=0;entryY=0.5;entryDx=0;entryDy=0;" edge="1" parent="1" source="0WRFsFUqXYq3tekZzmE6-118" target="0WRFsFUqXYq3tekZzmE6-78">
                    <mxGeometry relative="1" as="geometry">
                        <Array as="points">
                            <mxPoint x="940" y="740"/>
                            <mxPoint x="940" y="425"/>
                        </Array>
                    </mxGeometry>
                </mxCell>
                <mxCell id="62" style="edgeStyle=orthogonalEdgeStyle;rounded=0;orthogonalLoop=1;jettySize=auto;html=1;" edge="1" parent="1" source="0WRFsFUqXYq3tekZzmE6-118" target="45">
                    <mxGeometry relative="1" as="geometry"/>
                </mxCell>
                <mxCell id="65" style="edgeStyle=orthogonalEdgeStyle;rounded=0;orthogonalLoop=1;jettySize=auto;html=1;" edge="1" parent="1" source="0WRFsFUqXYq3tekZzmE6-118" target="63">
                    <mxGeometry relative="1" as="geometry">
                        <Array as="points">
                            <mxPoint x="640" y="780"/>
                            <mxPoint x="640" y="740"/>
                            <mxPoint x="540" y="740"/>
                        </Array>
                    </mxGeometry>
                </mxCell>
                <mxCell id="0WRFsFUqXYq3tekZzmE6-118" value="Message Broker (Kafka)" style="ellipse;whiteSpace=wrap;html=1;" parent="1" vertex="1">
                    <mxGeometry x="770" y="740" width="120" height="80" as="geometry"/>
                </mxCell>
                <mxCell id="0WRFsFUqXYq3tekZzmE6-138" value="" style="group" parent="1" vertex="1" connectable="0">
                    <mxGeometry x="160" y="380" width="120" height="90" as="geometry"/>
                </mxCell>
                <mxCell id="0WRFsFUqXYq3tekZzmE6-35" value="Account Service" style="ellipse;whiteSpace=wrap;html=1;" parent="0WRFsFUqXYq3tekZzmE6-138" vertex="1">
                    <mxGeometry width="120" height="80" as="geometry"/>
                </mxCell>
                <mxCell id="0WRFsFUqXYq3tekZzmE6-146" value="" style="group" parent="1" vertex="1" connectable="0">
                    <mxGeometry x="340" y="420" width="80" height="40" as="geometry"/>
                </mxCell>
                <mxCell id="0WRFsFUqXYq3tekZzmE6-147" value="Hystrix" style="rounded=0;whiteSpace=wrap;html=1;" parent="0WRFsFUqXYq3tekZzmE6-146" vertex="1">
                    <mxGeometry y="20" width="80" height="20" as="geometry"/>
                </mxCell>
                <mxCell id="0WRFsFUqXYq3tekZzmE6-233" value="" style="group" parent="1" vertex="1" connectable="0">
                    <mxGeometry x="1260" y="650" width="120" height="100" as="geometry"/>
                </mxCell>
                <mxCell id="0WRFsFUqXYq3tekZzmE6-65" value="Payment calculator service" style="ellipse;whiteSpace=wrap;html=1;" parent="0WRFsFUqXYq3tekZzmE6-233" vertex="1">
                    <mxGeometry width="120" height="80" as="geometry"/>
                </mxCell>
                <mxCell id="0WRFsFUqXYq3tekZzmE6-239" value="" style="endArrow=classic;startArrow=classic;html=1;entryX=1;entryY=0.5;entryDx=0;entryDy=0;edgeStyle=orthogonalEdgeStyle;rounded=0;exitX=0;exitY=0.5;exitDx=0;exitDy=0;" parent="1" source="0WRFsFUqXYq3tekZzmE6-38" target="0WRFsFUqXYq3tekZzmE6-118" edge="1">
                    <mxGeometry width="50" height="50" relative="1" as="geometry">
                        <mxPoint x="997.4264068711927" y="640.0042712474622" as="sourcePoint"/>
                        <mxPoint x="1039.9999999999995" y="691.72" as="targetPoint"/>
                        <Array as="points">
                            <mxPoint x="1410" y="425"/>
                            <mxPoint x="1410" y="610"/>
                            <mxPoint x="1170" y="610"/>
                            <mxPoint x="1170" y="780"/>
                        </Array>
                    </mxGeometry>
                </mxCell>
                <mxCell id="0WRFsFUqXYq3tekZzmE6-240" value="Google Firebase" style="ellipse;whiteSpace=wrap;html=1;" parent="1" vertex="1">
                    <mxGeometry x="160" y="768" width="120" height="80" as="geometry"/>
                </mxCell>
                <mxCell id="3" value="" style="group" parent="1" vertex="1" connectable="0">
                    <mxGeometry x="800" y="385" width="120" height="100" as="geometry"/>
                </mxCell>
                <mxCell id="4" value="&lt;div&gt;Dock service&lt;/div&gt;" style="ellipse;whiteSpace=wrap;html=1;" parent="3" vertex="1">
                    <mxGeometry width="120" height="80" as="geometry"/>
                </mxCell>
                <mxCell id="11" style="edgeStyle=orthogonalEdgeStyle;rounded=0;orthogonalLoop=1;jettySize=auto;html=1;exitX=0.5;exitY=1;exitDx=0;exitDy=0;" parent="1" target="0WRFsFUqXYq3tekZzmE6-104" edge="1">
                    <mxGeometry relative="1" as="geometry">
                        <mxPoint x="860" y="465" as="sourcePoint"/>
                    </mxGeometry>
                </mxCell>
                <mxCell id="66" style="edgeStyle=orthogonalEdgeStyle;rounded=0;orthogonalLoop=1;jettySize=auto;html=1;exitX=1;exitY=0.5;exitDx=0;exitDy=0;entryX=0.5;entryY=1;entryDx=0;entryDy=0;" edge="1" parent="1" source="15" target="0WRFsFUqXYq3tekZzmE6-49">
                    <mxGeometry relative="1" as="geometry">
                        <Array as="points">
                            <mxPoint x="1580" y="790"/>
                            <mxPoint x="1580" y="610"/>
                            <mxPoint x="1500" y="610"/>
                        </Array>
                    </mxGeometry>
                </mxCell>
                <mxCell id="67" style="edgeStyle=orthogonalEdgeStyle;rounded=0;orthogonalLoop=1;jettySize=auto;html=1;exitX=0.5;exitY=1;exitDx=0;exitDy=0;entryX=0.5;entryY=1;entryDx=0;entryDy=0;" edge="1" parent="1" source="15" target="0WRFsFUqXYq3tekZzmE6-118">
                    <mxGeometry relative="1" as="geometry">
                        <Array as="points">
                            <mxPoint x="1500" y="840"/>
                            <mxPoint x="830" y="840"/>
                        </Array>
                    </mxGeometry>
                </mxCell>
                <mxCell id="15" value="Payment process service" style="ellipse;whiteSpace=wrap;html=1;" parent="1" vertex="1">
                    <mxGeometry x="1440" y="750" width="120" height="80" as="geometry"/>
                </mxCell>
                <mxCell id="23" style="edgeStyle=orthogonalEdgeStyle;rounded=0;orthogonalLoop=1;jettySize=auto;html=1;entryX=0.5;entryY=0;entryDx=0;entryDy=0;" parent="1" source="22" target="0WRFsFUqXYq3tekZzmE6-100" edge="1">
                    <mxGeometry relative="1" as="geometry"/>
                </mxCell>
                <mxCell id="28" style="edgeStyle=orthogonalEdgeStyle;rounded=0;orthogonalLoop=1;jettySize=auto;html=1;entryX=1;entryY=0;entryDx=0;entryDy=0;" parent="1" source="22" target="0WRFsFUqXYq3tekZzmE6-118" edge="1">
                    <mxGeometry relative="1" as="geometry">
                        <mxPoint x="1090" y="630" as="targetPoint"/>
                        <Array as="points">
                            <mxPoint x="1100" y="425"/>
                            <mxPoint x="1100" y="752"/>
                        </Array>
                    </mxGeometry>
                </mxCell>
                <mxCell id="22" value="Travel history receiver service" style="ellipse;whiteSpace=wrap;html=1;" parent="1" vertex="1">
                    <mxGeometry x="1121" y="385" width="120" height="80" as="geometry"/>
                </mxCell>
                <mxCell id="34" value="" style="group" parent="1" vertex="1" connectable="0">
                    <mxGeometry x="1440" y="630" width="120" height="100" as="geometry"/>
                </mxCell>
                <mxCell id="35" value="Payment validator service" style="ellipse;whiteSpace=wrap;html=1;" parent="34" vertex="1">
                    <mxGeometry width="120" height="80" as="geometry"/>
                </mxCell>
                <mxCell id="44" style="edgeStyle=orthogonalEdgeStyle;rounded=0;orthogonalLoop=1;jettySize=auto;html=1;exitX=0;exitY=0.5;exitDx=0;exitDy=0;entryX=1;entryY=0.5;entryDx=0;entryDy=0;" parent="1" source="40" target="0WRFsFUqXYq3tekZzmE6-240" edge="1">
                    <mxGeometry relative="1" as="geometry"/>
                </mxCell>
                <mxCell id="40" value="Notification service" style="ellipse;whiteSpace=wrap;html=1;" parent="1" vertex="1">
                    <mxGeometry x="320" y="768" width="120" height="80" as="geometry"/>
                </mxCell>
                <mxCell id="61" style="edgeStyle=orthogonalEdgeStyle;rounded=0;orthogonalLoop=1;jettySize=auto;html=1;" edge="1" parent="1" source="45" target="0WRFsFUqXYq3tekZzmE6-54">
                    <mxGeometry relative="1" as="geometry"/>
                </mxCell>
                <mxCell id="45" value="Rental process service" style="ellipse;whiteSpace=wrap;html=1;" parent="1" vertex="1">
                    <mxGeometry x="640" y="620" width="120" height="80" as="geometry"/>
                </mxCell>
                <mxCell id="49" value="Dummy service" style="ellipse;whiteSpace=wrap;html=1;" parent="1" vertex="1">
                    <mxGeometry x="160" y="610" width="120" height="80" as="geometry"/>
                </mxCell>
                <mxCell id="55" value="" style="group" vertex="1" connectable="0" parent="1">
                    <mxGeometry x="800" y="620" width="120" height="100" as="geometry"/>
                </mxCell>
                <mxCell id="56" value="&lt;div&gt;Dock management&amp;nbsp;&lt;span&gt;service&lt;/span&gt;&lt;/div&gt;" style="ellipse;whiteSpace=wrap;html=1;" vertex="1" parent="55">
                    <mxGeometry width="120" height="80" as="geometry"/>
                </mxCell>
                <mxCell id="57" style="edgeStyle=orthogonalEdgeStyle;rounded=0;orthogonalLoop=1;jettySize=auto;html=1;" edge="1" parent="1" source="56" target="0WRFsFUqXYq3tekZzmE6-104">
                    <mxGeometry relative="1" as="geometry"/>
                </mxCell>
                <mxCell id="59" style="edgeStyle=orthogonalEdgeStyle;rounded=0;orthogonalLoop=1;jettySize=auto;html=1;exitX=0.5;exitY=1;exitDx=0;exitDy=0;" edge="1" parent="1" source="56" target="0WRFsFUqXYq3tekZzmE6-118">
                    <mxGeometry relative="1" as="geometry">
                        <Array as="points">
                            <mxPoint x="860" y="720"/>
                            <mxPoint x="830" y="720"/>
                        </Array>
                    </mxGeometry>
                </mxCell>
                <mxCell id="63" value="Bike validator service" style="ellipse;whiteSpace=wrap;html=1;" vertex="1" parent="1">
                    <mxGeometry x="480" y="610" width="120" height="80" as="geometry"/>
                </mxCell>
            </root>
        </mxGraphModel>
    </diagram>
</mxfile>